<?xml version="1.0" standalone="no"?>
<!DOCTYPE svg PUBLIC "-//W3C//DTD SVG 20010904//EN"
 "http://www.w3.org/TR/2001/REC-SVG-20010904/DTD/svg10.dtd">
<svg version="1.0" xmlns="http://www.w3.org/2000/svg"
 width="256.000000pt" height="256.000000pt" viewBox="0 0 256.000000 256.000000"
 preserveAspectRatio="xMidYMid meet">
<metadata>
Created by potrace 1.14, written by Peter Selinger 2001-2017
</metadata>
<g transform="translate(0.000000,256.000000) scale(0.100000,-0.100000)"
fill="#000000" stroke="none">
<path d="M1200 2440 l0 -40 -40 0 -40 0 0 -80 0 -80 40 0 c40 0 40 0 40 -38
l0 -39 -104 -6 c-109 -6 -159 -21 -190 -55 -40 -46 -30 -176 23 -286 l28 -56
-39 0 -38 0 0 -80 0 -80 400 0 400 0 0 80 0 80 -40 0 -40 0 24 48 c38 76 59
158 54 218 -8 94 -51 121 -213 131 l-105 6 0 39 c0 38 0 38 40 38 l40 0 0 80
0 80 -40 0 -40 0 0 40 0 40 -80 0 -80 0 0 -40z"/>
<path d="M1040 1467 c0 -95 -30 -310 -60 -435 -36 -149 -79 -254 -137 -339
-30 -45 -43 -73 -43 -98 l0 -35 480 0 480 0 0 35 c0 25 -13 53 -43 98 -58 85
-101 190 -137 339 -30 125 -60 340 -60 435 l0 53 -240 0 -240 0 0 -53z"/>
<path d="M665 455 c-24 -23 -25 -31 -25 -135 0 -104 1 -112 25 -135 l24 -25
591 0 591 0 24 25 c24 23 25 31 25 135 0 104 -1 112 -25 135 l-24 25 -591 0
-591 0 -24 -25z"/>
</g>
</svg>
